<?xml version="1.0" encoding="UTF-8" standalone="no"?>
<!-- Created with Inkscape (http://www.inkscape.org/) -->

<svg
   xmlns:dc="http://purl.org/dc/elements/1.1/"
   xmlns:cc="http://creativecommons.org/ns#"
   xmlns:rdf="http://www.w3.org/1999/02/22-rdf-syntax-ns#"
   xmlns:svg="http://www.w3.org/2000/svg"
   xmlns="http://www.w3.org/2000/svg"
   xmlns:inkscape="http://www.inkscape.org/namespaces/inkscape"
   version="1.1"
   width="422.9375"
   height="72.612503"
   id="svg2"
   xml:space="preserve"><metadata
     id="metadata8"><rdf:RDF><cc:Work
         rdf:about=""><dc:format>image/svg+xml</dc:format><dc:type
           rdf:resource="http://purl.org/dc/dcmitype/StillImage" /></cc:Work></rdf:RDF></metadata><defs
     id="defs6"><clipPath
       id="clipPath18"><path
         d="M 0,580.898 0,0 l 3383.51,0 0,580.898 -3383.51,0 z"
         inkscape:connector-curvature="0"
         id="path20" /></clipPath></defs><g
     transform="matrix(1.25,0,0,-1.25,0,72.6125)"
     id="g10"><g
       transform="scale(0.1,0.1)"
       id="g12"><g
         id="g14"><g
           clip-path="url(#clipPath18)"
           id="g16"><path
             d="m 251.328,231.758 42.6172,0 0,117.43 -42.6172,0 0,-117.43 z"
             inkscape:connector-curvature="0"
             id="path22"
             style="fill:#f6871b;fill-opacity:1;fill-rule:nonzero;stroke:none" /><path
             d="m 378.328,406.309 0,-141.657 c 0,-40.976 -11.25,-47.507 -58.207,-75.109 L 89.2461,49.9219 C 79.3125,44.0664 70.8477,41.0234 63.957,41.0234 c -0.4062,0 -0.8632,0.0743 -1.2656,0.0743 -13.9375,0.8398 -20.6797,11.6054 -20.6328,33.0468 l 0,434.2815 c 0,11.504 2.3867,19.332 7.5117,24.605 4.2539,4.332 9.5742,6.539 15.7578,6.539 7.0938,0 15.2578,-2.867 24.2227,-8.547 l 51.0352,-32.152 c 24.684,-15.633 35.476,-22.351 40.039,-25.234 l 0,48.343 c -5.98,3.782 -21.992,13.942 -69.434,44.168 -15.7848,10.032 -31.1168,14.75 -48.1441,14.75 -18.5508,0 -34.9688,-7.445 -46.2188,-21.031 C 5.77734,546.637 0,528.875 0,508.426 L 0,72.5469 C 0,51.0586 5.87891,32.7617 16.9766,19.8633 28.1797,6.94141 43.9414,0.046875 62.6172,0 l 0.1016,0 c 15.375,0 31.5429,4.94141 48.0192,14.75 l 219.805,133.105 10.996,6.489 c 48.852,28.633 78.348,45.918 78.399,110.261 l 0,141.704 -41.61,0"
             inkscape:connector-curvature="0"
             id="path24"
             style="fill:#2e9bb7;fill-opacity:1;fill-rule:nonzero;stroke:none" /><path
             d="m 166.992,174.668 0,141.602 c 0,41.023 11.153,47.562 58.18,75.109 L 456.02,530.977 c 9.937,5.882 18.453,8.871 25.242,8.871 0.453,0 0.965,0 1.394,-0.047 13.91,-0.793 20.602,-11.61 20.602,-33.074 l 0,-434.2036 c 0,-11.5273 -2.379,-19.3359 -7.574,-24.6562 -4.215,-4.3086 -9.532,-6.5156 -15.664,-6.5156 -7.122,0 -15.332,2.8906 -24.297,8.5703 l -50.938,32.1562 c -24.836,15.5821 -35.476,22.3709 -40.09,25.2109 l 0,-48.3007 C 370.676,55.2148 386.621,45.0039 434.082,14.8008 449.941,4.71484 465.199,0 482.273,0 c 18.497,0 34.918,7.5 46.274,21.0859 10.949,13.1719 16.75,30.8868 16.75,51.4375 l 0,435.8516 c 0,21.512 -5.801,39.707 -17.055,52.68 -11.097,12.949 -26.859,19.82 -45.586,19.843 l 0,0 c -15.328,0 -31.547,-4.964 -48.066,-14.699 L 214.73,433.062 203.789,426.629 c -48.855,-28.66 -78.328,-46.024 -78.434,-110.305 l 0,-141.656 41.637,0"
             inkscape:connector-curvature="0"
             id="path26"
             style="fill:#2e9bb7;fill-opacity:1;fill-rule:nonzero;stroke:none" /><path
             d="m 906.754,275.094 -109.043,0 54.766,138.281 54.277,-138.281 z m -30.484,187.465 -48.047,0 -115.371,-287.098 -0.387,-0.793 47.539,0 24.883,62.336 135.117,0 24.684,-61.981 0.175,-0.355 47.563,0 -116.004,287.586 -0.152,0.305"
             inkscape:connector-curvature="0"
             id="path28"
             style="fill:#444142;fill-opacity:1;fill-rule:nonzero;stroke:none" /><path
             d="m 1246.51,390.16 c -28.4,0 -54,-16.875 -67.12,-33.777 -8.87,21.437 -29.09,33.777 -55.85,33.777 -24.58,0 -48.71,-13.961 -62.24,-28.199 l 0,23.137 -38.59,0 0,-210.43 38.59,0 0,151.133 c 10.09,14.515 30.41,29.164 50.02,29.164 22.56,0 34.06,-13.027 34.06,-38.594 l 0,-141.703 38.52,0 0,151.559 c 9.63,13.968 30.46,28.738 50.43,28.738 22.55,0 34.02,-13.027 34.02,-38.594 l 0,-141.703 38.55,0 0,150.523 c 0,42.493 -20.86,64.969 -60.39,64.969"
             inkscape:connector-curvature="0"
             id="path30"
             style="fill:#444142;fill-opacity:1;fill-rule:nonzero;stroke:none" /><path
             d="m 1720.76,356.332 0.15,0.102 0,28.664 -167.37,0 14.01,-34.743 101.69,0 -107.97,-145.66 -0.66,-0.988 0,-29.039 161.94,0 0,34.359 -111.11,0 109.32,147.305"
             inkscape:connector-curvature="0"
             id="path32"
             style="fill:#444142;fill-opacity:1;fill-rule:nonzero;stroke:none" /><path
             d="m 1481.52,222.281 c -11,-14.414 -30.64,-22.98 -52.56,-22.98 -27.49,0 -46.65,16.754 -46.65,40.797 0,24.175 19.16,41.199 46.65,41.199 21.92,0 41.56,-8.613 52.56,-22.981 l 0,-36.035 z m -43.74,162.817 c -33.9,0 -82.94,0 -82.94,0 l 14.09,-34.743 c 0,0 47.69,0 64.67,0 29.09,0 47.92,-15.531 47.92,-39.535 l 0,-22.55 c -16.14,15.097 -37.73,22.675 -63.96,22.675 -35.96,0 -74.63,-22.019 -74.63,-70.441 0,-46.07 38.42,-70.879 74.63,-70.879 25.04,0 47.11,8.059 63.96,23.313 l 0,-18.27 38.49,0 0,138.281 c 0,45.84 -29.95,72.149 -82.23,72.149"
             inkscape:connector-curvature="0"
             id="path34"
             style="fill:#444142;fill-opacity:1;fill-rule:nonzero;stroke:none" /><path
             d="m 1766.7,174.668 38.5391,0 0,210.43 -38.5391,0 0,-210.43 z"
             inkscape:connector-curvature="0"
             id="path36"
             style="fill:#444142;fill-opacity:1;fill-rule:nonzero;stroke:none" /><path
             d="m 1785.78,407.215 c 13.68,0 24.93,10.996 24.93,24.531 0,13.785 -11.25,24.965 -24.93,24.965 -13.33,0 -24.58,-11.434 -24.58,-24.965 0,-13.535 11,-24.531 24.58,-24.531"
             inkscape:connector-curvature="0"
             id="path38"
             style="fill:#444142;fill-opacity:1;fill-rule:nonzero;stroke:none" /><path
             d="m 1965.28,390.16 c -28.37,0 -54.06,-14.949 -69.02,-29.265 l 0,24.203 -38.52,0 0,-210.43 38.52,0 0,151.004 c 10.64,14.191 32.85,29.293 56.76,29.293 29.1,0 42.07,-13.457 42.07,-43.688 l 0,-136.609 38.52,0 0,146.293 c 0,45.937 -23.01,69.199 -68.33,69.199"
             inkscape:connector-curvature="0"
             id="path40"
             style="fill:#444142;fill-opacity:1;fill-rule:nonzero;stroke:none" /><path
             d="m 2233.12,237.691 c -9.98,-15.332 -32.75,-30.769 -57.17,-30.769 -37.58,0 -61.86,29.07 -61.86,73.973 0,45.031 24.28,74.07 61.86,74.07 24.6,0 47.35,-15.254 57.17,-30.379 l 0,-86.895 z m 0,147.407 0,-24.43 c -17.26,19.027 -40.19,29.492 -64.81,29.492 -57.17,0 -94.01,-42.851 -94.01,-109.265 0,-66.036 36.84,-108.786 94.01,-108.786 24.39,0 47.89,10.868 64.81,29.801 l 0,-17.457 c 0,-52.027 -43.27,-57.621 -61.82,-57.621 -26.75,0 -64.31,0 -64.31,0 l -14.7,-34.8008 c 0,0 50.18,0 79.01,0 37.52,0 100.38,11.9918 100.38,91.9378 l 0,201.129 -38.56,0"
             inkscape:connector-curvature="0"
             id="path42"
             style="fill:#444142;fill-opacity:1;fill-rule:nonzero;stroke:none" /><path
             d="m 2880.37,174.668 38.6172,0 0,210.43 -38.6172,0 0,-210.43 z"
             inkscape:connector-curvature="0"
             id="path44"
             style="fill:#444142;fill-opacity:1;fill-rule:nonzero;stroke:none" /><path
             d="m 2899.48,407.215 c 13.74,0 24.94,10.996 24.94,24.531 0,13.785 -11.2,24.965 -24.94,24.965 -13.27,0 -24.58,-11.434 -24.58,-24.965 0,-13.535 11.01,-24.531 24.58,-24.531"
             inkscape:connector-curvature="0"
             id="path46"
             style="fill:#444142;fill-opacity:1;fill-rule:nonzero;stroke:none" /><path
             d="m 3078.95,390.16 c -28.32,0 -53.98,-14.949 -68.98,-29.265 l 0,24.203 -38.57,0 0,-210.43 38.57,0 0,151.004 c 10.65,14.191 32.84,29.293 56.77,29.293 29.03,0 42.05,-13.457 42.05,-43.688 l 0,-136.609 38.52,0 0,146.293 c 0,45.937 -22.95,69.199 -68.36,69.199"
             inkscape:connector-curvature="0"
             id="path48"
             style="fill:#444142;fill-opacity:1;fill-rule:nonzero;stroke:none" /><path
             d="m 3344.96,237.691 c -9.87,-15.332 -32.75,-30.769 -57.17,-30.769 -37.59,0 -61.77,29.07 -61.77,73.973 0,45.031 24.18,74.07 61.77,74.07 24.59,0 47.34,-15.254 57.17,-30.379 l 0,-86.895 z m 0,147.407 0,-24.43 c -17.18,19.027 -40.14,29.492 -64.75,29.492 -57.15,0 -94.11,-42.851 -94.11,-109.265 0,-66.036 36.96,-108.786 94.11,-108.786 24.34,0 47.89,10.868 64.75,29.801 l 0,-17.457 c 0,-52.027 -43.2,-57.621 -61.78,-57.621 -26.75,0 -64.33,0 -64.33,0 l -14.57,-34.8008 c 0,0 50.07,0 78.9,0 37.45,0 100.33,11.9918 100.33,91.9378 l 0,201.129 -38.55,0"
             inkscape:connector-curvature="0"
             id="path50"
             style="fill:#444142;fill-opacity:1;fill-rule:nonzero;stroke:none" /><path
             d="m 2537.82,341.688 -157.3,0 0,120.871 -41.97,0 0,-287.891 41.97,0 0,128.883 157.3,0 0,-128.883 41.93,0 0,287.891 -41.93,0 0,-120.871"
             inkscape:connector-curvature="0"
             id="path52"
             style="fill:#444142;fill-opacity:1;fill-rule:nonzero;stroke:none" /><path
             d="m 2658.29,407.215 c 13.73,0 24.93,10.996 24.93,24.531 0,13.785 -11.2,24.965 -24.93,24.965 -13.32,0 -24.58,-11.434 -24.58,-24.965 0,-13.535 11.01,-24.531 24.58,-24.531"
             inkscape:connector-curvature="0"
             id="path54"
             style="fill:#444142;fill-opacity:1;fill-rule:nonzero;stroke:none" /><path
             d="m 2639.19,174.668 38.5195,0 0,210.43 -38.5195,0 0,-210.43 z"
             inkscape:connector-curvature="0"
             id="path56"
             style="fill:#444142;fill-opacity:1;fill-rule:nonzero;stroke:none" /><path
             d="m 2770.2,358.414 0,26.684 -38.62,0 0,-210.43 38.62,0 0,146.648 c 9.12,15.301 34.2,29.821 51.64,29.821 4.68,0 8.21,-0.328 11.85,-1.168 l 4.27,-0.907 0,40.211 -3.5,0 c -23.51,0 -46.27,-10.894 -64.26,-30.859"
             inkscape:connector-curvature="0"
             id="path58"
             style="fill:#444142;fill-opacity:1;fill-rule:nonzero;stroke:none" /></g></g></g></g></svg>